<mxfile host="app.diagrams.net" modified="2022-03-09T21:31:34.847Z" agent="5.0 (Macintosh; Intel Mac OS X 10_15_7) AppleWebKit/537.36 (KHTML, like Gecko) Chrome/98.0.4758.109 Safari/537.36" etag="deKi-Le9p8XYbVo9IIpK" version="16.6.6" type="github">
  <diagram id="uGeao0xBaTgsjHfaSkCE" name="Page-1">
    <mxGraphModel dx="1113" dy="666" grid="1" gridSize="10" guides="1" tooltips="1" connect="1" arrows="1" fold="1" page="1" pageScale="1" pageWidth="850" pageHeight="1100" math="0" shadow="0">
      <root>
        <mxCell id="0" />
        <mxCell id="1" parent="0" />
        <mxCell id="CNOi1O9BizefPwyDBPZ5-4" style="edgeStyle=orthogonalEdgeStyle;rounded=0;orthogonalLoop=1;jettySize=auto;html=1;exitX=0.25;exitY=1;exitDx=0;exitDy=0;entryX=0.25;entryY=0;entryDx=0;entryDy=0;" edge="1" parent="1" source="CNOi1O9BizefPwyDBPZ5-1" target="CNOi1O9BizefPwyDBPZ5-2">
          <mxGeometry relative="1" as="geometry" />
        </mxCell>
        <mxCell id="CNOi1O9BizefPwyDBPZ5-7" style="edgeStyle=orthogonalEdgeStyle;rounded=0;orthogonalLoop=1;jettySize=auto;html=1;exitX=0.75;exitY=1;exitDx=0;exitDy=0;entryX=0.75;entryY=0;entryDx=0;entryDy=0;" edge="1" parent="1" source="CNOi1O9BizefPwyDBPZ5-1" target="CNOi1O9BizefPwyDBPZ5-2">
          <mxGeometry relative="1" as="geometry" />
        </mxCell>
        <mxCell id="CNOi1O9BizefPwyDBPZ5-1" value="Client" style="rounded=0;whiteSpace=wrap;html=1;" vertex="1" parent="1">
          <mxGeometry x="320" y="130" width="120" height="60" as="geometry" />
        </mxCell>
        <mxCell id="CNOi1O9BizefPwyDBPZ5-2" value="Load Balancer&amp;nbsp;" style="rounded=0;whiteSpace=wrap;html=1;" vertex="1" parent="1">
          <mxGeometry x="320" y="270" width="120" height="60" as="geometry" />
        </mxCell>
        <mxCell id="CNOi1O9BizefPwyDBPZ5-5" value="update" style="text;html=1;strokeColor=none;fillColor=none;align=center;verticalAlign=middle;whiteSpace=wrap;rounded=0;" vertex="1" parent="1">
          <mxGeometry x="290" y="210" width="60" height="30" as="geometry" />
        </mxCell>
        <mxCell id="CNOi1O9BizefPwyDBPZ5-6" value="read" style="text;html=1;strokeColor=none;fillColor=none;align=center;verticalAlign=middle;whiteSpace=wrap;rounded=0;" vertex="1" parent="1">
          <mxGeometry x="420" y="215" width="60" height="30" as="geometry" />
        </mxCell>
        <mxCell id="CNOi1O9BizefPwyDBPZ5-8" value="Picks random &lt;br&gt;server url" style="ellipse;shape=cloud;whiteSpace=wrap;html=1;fillColor=#fff2cc;strokeColor=#d6b656;" vertex="1" parent="1">
          <mxGeometry x="490" y="245" width="120" height="80" as="geometry" />
        </mxCell>
        <mxCell id="CNOi1O9BizefPwyDBPZ5-9" value="" style="endArrow=none;dashed=1;html=1;dashPattern=1 3;strokeWidth=2;rounded=0;exitX=0.16;exitY=0.55;exitDx=0;exitDy=0;exitPerimeter=0;entryX=1;entryY=0.5;entryDx=0;entryDy=0;" edge="1" parent="1" source="CNOi1O9BizefPwyDBPZ5-8" target="CNOi1O9BizefPwyDBPZ5-2">
          <mxGeometry width="50" height="50" relative="1" as="geometry">
            <mxPoint x="400" y="340" as="sourcePoint" />
            <mxPoint x="450" y="290" as="targetPoint" />
          </mxGeometry>
        </mxCell>
        <mxCell id="CNOi1O9BizefPwyDBPZ5-19" value="" style="edgeStyle=orthogonalEdgeStyle;rounded=0;orthogonalLoop=1;jettySize=auto;html=1;" edge="1" parent="1" source="CNOi1O9BizefPwyDBPZ5-10" target="CNOi1O9BizefPwyDBPZ5-15">
          <mxGeometry relative="1" as="geometry" />
        </mxCell>
        <mxCell id="CNOi1O9BizefPwyDBPZ5-10" value="server 1" style="rounded=0;whiteSpace=wrap;html=1;" vertex="1" parent="1">
          <mxGeometry x="180" y="370" width="120" height="60" as="geometry" />
        </mxCell>
        <mxCell id="CNOi1O9BizefPwyDBPZ5-11" value="server 2" style="rounded=0;whiteSpace=wrap;html=1;" vertex="1" parent="1">
          <mxGeometry x="320" y="370" width="120" height="60" as="geometry" />
        </mxCell>
        <mxCell id="CNOi1O9BizefPwyDBPZ5-33" style="edgeStyle=orthogonalEdgeStyle;rounded=0;orthogonalLoop=1;jettySize=auto;html=1;fontSize=9;entryX=1;entryY=0.5;entryDx=0;entryDy=0;" edge="1" parent="1" source="CNOi1O9BizefPwyDBPZ5-12" target="CNOi1O9BizefPwyDBPZ5-1">
          <mxGeometry relative="1" as="geometry">
            <mxPoint x="700" y="140" as="targetPoint" />
            <Array as="points">
              <mxPoint x="640" y="400" />
              <mxPoint x="640" y="160" />
            </Array>
          </mxGeometry>
        </mxCell>
        <mxCell id="CNOi1O9BizefPwyDBPZ5-12" value="server 3" style="rounded=0;whiteSpace=wrap;html=1;" vertex="1" parent="1">
          <mxGeometry x="460" y="370" width="120" height="60" as="geometry" />
        </mxCell>
        <mxCell id="CNOi1O9BizefPwyDBPZ5-13" value="" style="endArrow=classic;html=1;rounded=0;exitX=0.25;exitY=1;exitDx=0;exitDy=0;entryX=0.5;entryY=0;entryDx=0;entryDy=0;" edge="1" parent="1" source="CNOi1O9BizefPwyDBPZ5-2" target="CNOi1O9BizefPwyDBPZ5-10">
          <mxGeometry width="50" height="50" relative="1" as="geometry">
            <mxPoint x="400" y="340" as="sourcePoint" />
            <mxPoint x="450" y="290" as="targetPoint" />
          </mxGeometry>
        </mxCell>
        <mxCell id="CNOi1O9BizefPwyDBPZ5-14" value="update" style="text;html=1;strokeColor=none;fillColor=none;align=center;verticalAlign=middle;whiteSpace=wrap;rounded=0;" vertex="1" parent="1">
          <mxGeometry x="240" y="320" width="60" height="30" as="geometry" />
        </mxCell>
        <mxCell id="CNOi1O9BizefPwyDBPZ5-20" value="" style="edgeStyle=orthogonalEdgeStyle;rounded=0;orthogonalLoop=1;jettySize=auto;html=1;entryX=0.25;entryY=1;entryDx=0;entryDy=0;exitX=0.75;exitY=1;exitDx=0;exitDy=0;" edge="1" parent="1" source="CNOi1O9BizefPwyDBPZ5-10" target="CNOi1O9BizefPwyDBPZ5-11">
          <mxGeometry relative="1" as="geometry">
            <Array as="points">
              <mxPoint x="270" y="450" />
              <mxPoint x="350" y="450" />
            </Array>
          </mxGeometry>
        </mxCell>
        <mxCell id="CNOi1O9BizefPwyDBPZ5-15" value="" style="shape=cylinder3;whiteSpace=wrap;html=1;boundedLbl=1;backgroundOutline=1;size=15;" vertex="1" parent="1">
          <mxGeometry x="200" y="460" width="60" height="80" as="geometry" />
        </mxCell>
        <mxCell id="CNOi1O9BizefPwyDBPZ5-16" value="" style="shape=cylinder3;whiteSpace=wrap;html=1;boundedLbl=1;backgroundOutline=1;size=15;" vertex="1" parent="1">
          <mxGeometry x="360" y="460" width="60" height="80" as="geometry" />
        </mxCell>
        <mxCell id="CNOi1O9BizefPwyDBPZ5-17" value="" style="shape=cylinder3;whiteSpace=wrap;html=1;boundedLbl=1;backgroundOutline=1;size=15;" vertex="1" parent="1">
          <mxGeometry x="490" y="460" width="60" height="80" as="geometry" />
        </mxCell>
        <mxCell id="CNOi1O9BizefPwyDBPZ5-18" value="" style="endArrow=classic;html=1;rounded=0;exitX=0.5;exitY=1;exitDx=0;exitDy=0;entryX=0.5;entryY=0;entryDx=0;entryDy=0;" edge="1" parent="1" source="CNOi1O9BizefPwyDBPZ5-2" target="CNOi1O9BizefPwyDBPZ5-12">
          <mxGeometry width="50" height="50" relative="1" as="geometry">
            <mxPoint x="400" y="340" as="sourcePoint" />
            <mxPoint x="450" y="290" as="targetPoint" />
          </mxGeometry>
        </mxCell>
        <mxCell id="CNOi1O9BizefPwyDBPZ5-22" value="" style="endArrow=classic;html=1;rounded=0;entryX=0.25;entryY=1;entryDx=0;entryDy=0;" edge="1" parent="1" target="CNOi1O9BizefPwyDBPZ5-12">
          <mxGeometry width="50" height="50" relative="1" as="geometry">
            <mxPoint x="350" y="450" as="sourcePoint" />
            <mxPoint x="450" y="290" as="targetPoint" />
          </mxGeometry>
        </mxCell>
        <mxCell id="CNOi1O9BizefPwyDBPZ5-23" value="propagate" style="text;html=1;strokeColor=none;fillColor=none;align=center;verticalAlign=middle;whiteSpace=wrap;rounded=0;" vertex="1" parent="1">
          <mxGeometry x="280" y="450" width="60" height="30" as="geometry" />
        </mxCell>
        <mxCell id="CNOi1O9BizefPwyDBPZ5-24" value="read" style="text;html=1;strokeColor=none;fillColor=none;align=center;verticalAlign=middle;whiteSpace=wrap;rounded=0;" vertex="1" parent="1">
          <mxGeometry x="430" y="330" width="60" height="30" as="geometry" />
        </mxCell>
        <mxCell id="CNOi1O9BizefPwyDBPZ5-25" value="1" style="ellipse;whiteSpace=wrap;html=1;aspect=fixed;fillColor=#d5e8d4;strokeColor=#82b366;" vertex="1" parent="1">
          <mxGeometry x="250" y="205" width="40" height="40" as="geometry" />
        </mxCell>
        <mxCell id="CNOi1O9BizefPwyDBPZ5-26" value="2" style="ellipse;whiteSpace=wrap;html=1;aspect=fixed;fillColor=#d5e8d4;strokeColor=#82b366;" vertex="1" parent="1">
          <mxGeometry x="200" y="310" width="40" height="40" as="geometry" />
        </mxCell>
        <mxCell id="CNOi1O9BizefPwyDBPZ5-27" value="3" style="ellipse;whiteSpace=wrap;html=1;aspect=fixed;fillColor=#d5e8d4;strokeColor=#82b366;" vertex="1" parent="1">
          <mxGeometry x="140" y="430" width="40" height="40" as="geometry" />
        </mxCell>
        <mxCell id="CNOi1O9BizefPwyDBPZ5-28" value="4" style="ellipse;whiteSpace=wrap;html=1;aspect=fixed;fillColor=#d5e8d4;strokeColor=#82b366;" vertex="1" parent="1">
          <mxGeometry x="290" y="480" width="40" height="40" as="geometry" />
        </mxCell>
        <mxCell id="CNOi1O9BizefPwyDBPZ5-29" value="5" style="ellipse;whiteSpace=wrap;html=1;aspect=fixed;fillColor=#d5e8d4;strokeColor=#82b366;" vertex="1" parent="1">
          <mxGeometry x="472.5" y="210" width="40" height="40" as="geometry" />
        </mxCell>
        <mxCell id="CNOi1O9BizefPwyDBPZ5-30" value="6" style="ellipse;whiteSpace=wrap;html=1;aspect=fixed;fontSize=9;fillColor=#d5e8d4;strokeColor=#82b366;" vertex="1" parent="1">
          <mxGeometry x="480" y="335" width="25" height="25" as="geometry" />
        </mxCell>
        <mxCell id="CNOi1O9BizefPwyDBPZ5-32" value="7" style="ellipse;whiteSpace=wrap;html=1;aspect=fixed;fontSize=9;fillColor=#d5e8d4;strokeColor=#82b366;" vertex="1" parent="1">
          <mxGeometry x="700" y="265" width="25" height="25" as="geometry" />
        </mxCell>
        <mxCell id="CNOi1O9BizefPwyDBPZ5-34" value="&lt;font style=&quot;font-size: 13px&quot;&gt;response&lt;/font&gt;" style="text;html=1;strokeColor=none;fillColor=none;align=center;verticalAlign=middle;whiteSpace=wrap;rounded=0;fontSize=9;" vertex="1" parent="1">
          <mxGeometry x="640" y="260" width="60" height="30" as="geometry" />
        </mxCell>
      </root>
    </mxGraphModel>
  </diagram>
</mxfile>
